<mxfile host="app.diagrams.net" modified="2023-11-11T02:38:56.874Z" agent="Mozilla/5.0 (Windows NT 10.0; Win64; x64) AppleWebKit/537.36 (KHTML, like Gecko) Chrome/119.0.0.0 Safari/537.36" version="22.1.0" etag="j8BXaBW_Wb0BDv_tgRVo" type="github">
  <diagram name="Page-1" id="rUm4avwqN5XmKpe1e3K9">
    <mxGraphModel>
      <root>
        <mxCell id="0" />
        <mxCell id="1" parent="0" />
      </root>
    </mxGraphModel>
  </diagram>
</mxfile>
